<svg xmlns="http://www.w3.org/2000/svg" width="960" height="540" viewBox="0 0 960 540" role="img" aria-label="狂扁外星人3D封面">
  <defs>
    <linearGradient id="sky" x1="0" x2="1" y1="0" y2="1">
      <stop offset="0" stop-color="#0a1724"/>
      <stop offset=".55" stop-color="#141f2d"/>
      <stop offset="1" stop-color="#05080d"/>
    </linearGradient>
    <radialGradient id="portal" cx="50%" cy="50%" r="50%">
      <stop offset="0" stop-color="#d9fff8"/>
      <stop offset=".42" stop-color="#6bdcff"/>
      <stop offset="1" stop-color="#1b5cff" stop-opacity=".12"/>
    </radialGradient>
    <filter id="glow">
      <feGaussianBlur stdDeviation="7" result="b"/>
      <feMerge>
        <feMergeNode in="b"/>
        <feMergeNode in="SourceGraphic"/>
      </feMerge>
    </filter>
  </defs>
  <rect width="960" height="540" fill="url(#sky)"/>
  <g opacity=".72">
    <rect x="20" y="110" width="92" height="260" fill="#1b2635"/>
    <rect x="130" y="70" width="126" height="310" fill="#182331"/>
    <rect x="744" y="86" width="96" height="298" fill="#1a2430"/>
    <rect x="858" y="128" width="78" height="240" fill="#17212d"/>
    <g fill="#6bdcff" opacity=".28">
      <rect x="50" y="150" width="36" height="10"/>
      <rect x="160" y="118" width="46" height="10"/>
      <rect x="174" y="178" width="34" height="10"/>
      <rect x="775" y="136" width="38" height="10"/>
      <rect x="881" y="184" width="30" height="10"/>
    </g>
  </g>
  <path d="M0 408 C180 376 320 382 480 405 C640 428 800 398 960 382 L960 540 L0 540Z" fill="#202832"/>
  <path d="M80 468 C260 426 494 428 884 452" fill="none" stroke="#ffd166" stroke-width="8" stroke-dasharray="34 28" opacity=".8"/>
  <ellipse cx="775" cy="242" rx="78" ry="112" fill="url(#portal)" filter="url(#glow)" opacity=".9"/>
  <ellipse cx="775" cy="242" rx="52" ry="84" fill="none" stroke="#b7ff5a" stroke-width="11" filter="url(#glow)"/>
  <g transform="translate(610 248)">
    <ellipse cx="0" cy="58" rx="58" ry="18" fill="#000" opacity=".35"/>
    <rect x="-34" y="-2" width="68" height="92" rx="26" fill="#89e85a"/>
    <circle cx="0" cy="-34" r="38" fill="#9dff65"/>
    <circle cx="-14" cy="-40" r="8" fill="#f4fbff"/>
    <circle cx="14" cy="-40" r="8" fill="#f4fbff"/>
    <rect x="-46" y="12" width="18" height="64" rx="9" fill="#2d5a3d"/>
    <rect x="28" y="12" width="18" height="64" rx="9" fill="#2d5a3d"/>
    <rect x="-25" y="78" width="18" height="52" rx="8" fill="#2d5a3d"/>
    <rect x="8" y="78" width="18" height="52" rx="8" fill="#2d5a3d"/>
    <path d="M0 -72 L8 -108" stroke="#2d5a3d" stroke-width="7" stroke-linecap="round"/>
    <circle cx="10" cy="-112" r="9" fill="#9dff65"/>
  </g>
  <g transform="translate(330 248)">
    <ellipse cx="0" cy="82" rx="72" ry="20" fill="#000" opacity=".36"/>
    <rect x="-42" y="-4" width="84" height="112" rx="14" fill="#2d79ff"/>
    <rect x="-52" y="38" width="104" height="18" rx="8" fill="#16396e"/>
    <circle cx="0" cy="-52" r="39" fill="#f0c18b"/>
    <rect x="-28" y="-60" width="56" height="10" rx="5" fill="#dff9ff"/>
    <rect x="-72" y="4" width="22" height="86" rx="10" fill="#16396e" transform="rotate(17 -61 47)"/>
    <circle cx="-86" cy="88" r="21" fill="#ffd166"/>
    <rect x="50" y="-4" width="24" height="96" rx="10" fill="#16396e" transform="rotate(-47 62 42)"/>
    <circle cx="102" cy="-4" r="24" fill="#ffd166"/>
    <rect x="-30" y="104" width="24" height="72" rx="9" fill="#16396e"/>
    <rect x="8" y="104" width="24" height="72" rx="9" fill="#16396e"/>
  </g>
  <path d="M438 240 C500 214 548 214 590 232" stroke="#6bdcff" stroke-width="18" stroke-linecap="round" filter="url(#glow)" fill="none"/>
  <text x="48" y="78" fill="#f4fbff" font-family="Microsoft YaHei, Arial, sans-serif" font-size="54" font-weight="900">狂扁外星人 3D</text>
  <text x="52" y="126" fill="#a7c0ce" font-family="Microsoft YaHei, Arial, sans-serif" font-size="24" font-weight="700">街区战斗 · 连击 · 能量炮 · 手雷 · Boss 波</text>
</svg>
