<svg xmlns="http://www.w3.org/2000/svg" viewBox="0 0 960 540" role="img" aria-label="格斗皇97像素格斗封面">
  <defs>
    <linearGradient id="sky" x1="0" x2="0" y1="0" y2="1">
      <stop offset="0" stop-color="#11163a"/>
      <stop offset=".55" stop-color="#441421"/>
      <stop offset="1" stop-color="#09090d"/>
    </linearGradient>
  </defs>
  <rect width="960" height="540" fill="url(#sky)"/>
  <g shape-rendering="crispEdges">
    <rect y="350" width="960" height="190" fill="#161516"/>
    <rect y="430" width="960" height="7" fill="#ffd56b" opacity=".55"/>
    <g opacity=".9">
      <rect x="70" y="160" width="72" height="190" fill="#172141"/>
      <rect x="180" y="120" width="82" height="230" fill="#1d2748"/>
      <rect x="730" y="135" width="96" height="215" fill="#182244"/>
      <rect x="840" y="190" width="58" height="160" fill="#121a34"/>
    </g>
    <g fill="#ffd56b">
      <rect x="90" y="190" width="9" height="15"/><rect x="115" y="230" width="9" height="15"/>
      <rect x="205" y="160" width="10" height="16"/><rect x="238" y="210" width="10" height="16"/>
      <rect x="758" y="178" width="10" height="16"/><rect x="792" y="238" width="10" height="16"/>
    </g>
    <g>
      <rect x="210" y="220" width="52" height="132" fill="#273c7a"/>
      <rect x="218" y="182" width="42" height="46" fill="#f0bd86"/>
      <rect x="208" y="170" width="62" height="22" fill="#221913"/>
      <rect x="258" y="248" width="92" height="22" fill="#273c7a"/>
      <rect x="334" y="245" width="26" height="24" fill="#f0bd86"/>
      <rect x="205" y="350" width="26" height="70" fill="#273c7a"/>
      <rect x="244" y="350" width="26" height="70" fill="#273c7a"/>
      <rect x="188" y="416" width="45" height="12" fill="#111"/>
      <rect x="238" y="416" width="46" height="12" fill="#111"/>
    </g>
    <g>
      <rect x="685" y="205" width="60" height="145" fill="#171417"/>
      <rect x="698" y="164" width="42" height="46" fill="#e8ad7a"/>
      <rect x="686" y="150" width="72" height="24" fill="#8f1828"/>
      <rect x="592" y="232" width="100" height="22" fill="#171417"/>
      <rect x="582" y="228" width="28" height="24" fill="#e8ad7a"/>
      <rect x="686" y="350" width="28" height="70" fill="#b21728"/>
      <rect x="728" y="350" width="28" height="70" fill="#171417"/>
      <rect x="670" y="416" width="48" height="12" fill="#111"/>
      <rect x="722" y="416" width="48" height="12" fill="#111"/>
    </g>
    <g opacity=".92">
      <rect x="400" y="250" width="150" height="34" fill="#ff663d"/>
      <rect x="430" y="240" width="92" height="54" fill="#ffd56b"/>
      <rect x="462" y="228" width="36" height="76" fill="#fff7c8"/>
    </g>
    <rect x="0" y="0" width="960" height="540" fill="none" stroke="#ffd56b" stroke-width="12"/>
  </g>
  <text x="480" y="82" fill="#ffd56b" font-family="Courier New,monospace" font-size="68" font-weight="900" text-anchor="middle">格斗皇 97</text>
  <text x="480" y="130" fill="#9fd8ff" font-family="Courier New,monospace" font-size="30" font-weight="900" text-anchor="middle">PIXEL FIGHTER</text>
</svg>
